<svg width="100" height="100" viewBox="0 0 100 100" fill="none" xmlns="http://www.w3.org/2000/svg">
<g clip-path="url(#clip0_156_90)">
<path d="M0 15.625C0 6.99555 6.99555 0 15.625 0H84.375C93.0044 0 100 6.99555 100 15.625V84.375C100 93.0044 93.0044 100 84.375 100H15.625C6.99555 100 0 93.0044 0 84.375V15.625Z" fill="#0C3A2D"/>
<path d="M35.5925 46.0937C31.527 46.0937 28.2569 44.7711 25.7823 42.1259C23.3076 39.4806 22.0703 36.0124 22.0703 31.7212C22.0703 30.2516 22.1882 28.8996 22.4238 27.6652C23.013 24.1969 24.2504 21.1108 26.1358 18.4068C28.0802 15.7027 30.437 13.5865 33.2062 12.0582C36.0344 10.5298 39.0099 9.76562 42.1326 9.76562C46.1981 9.76562 49.4387 11.0589 51.8544 13.6453C54.3291 16.2318 55.5664 19.6412 55.5664 23.8736C55.5664 25.3432 55.4486 26.6952 55.2129 27.9297C54.5648 31.4567 53.298 34.6016 51.4125 37.3644C49.5271 40.0685 47.1997 42.214 44.4305 43.8012C41.6613 45.3296 38.7153 46.0937 35.5925 46.0937ZM36.8298 44.8593C40.0704 44.8593 42.7513 43.4191 44.8724 40.5387C47.0524 37.6583 48.5549 33.808 49.3798 28.9878C49.6744 27.2831 49.8217 25.402 49.8217 23.3446C49.8217 19.3473 49.0263 16.2906 47.4354 14.1744C45.8446 12.0582 43.7529 11.0001 41.1604 11.0001C37.9787 11.0001 35.2095 12.4697 32.8527 15.4088C30.5548 18.348 28.9934 22.1983 28.1685 26.9598C27.8739 28.8996 27.7266 30.6043 27.7266 32.0739C27.7266 35.9536 28.5221 39.0691 30.1129 41.4205C31.7038 43.713 33.9427 44.8593 36.8298 44.8593Z" fill="white"/>
<path d="M55.2851 46.6797C55.0169 46.6797 54.8828 46.4785 54.8828 46.076C54.8828 45.6736 55.0169 45.4724 55.2851 45.4724C57.7657 45.4724 59.6429 45.3047 60.9167 44.9694C62.1905 44.634 63.1292 43.9968 63.7325 43.0578C64.3359 42.0517 64.8388 40.5426 65.241 38.5304L68.6602 19.5155C69.0625 16.9668 69.2636 15.4576 69.2636 14.9881C69.2636 14.2504 69.1295 13.7138 68.8614 13.3784C68.6602 13.0431 68.2915 12.8754 67.7552 12.8754C67.1518 12.8754 66.2132 13.1101 64.9393 13.5796C63.6655 14.0491 62.2241 14.6528 60.615 15.3906L60.4139 15.4912C60.1457 15.4912 59.9781 15.3235 59.9111 14.9881C59.844 14.6528 59.9446 14.418 60.2128 14.2839L75.3981 6.83889C75.5322 6.70475 75.6998 6.70475 75.9009 6.83889C76.1021 6.97303 76.1691 7.10718 76.1021 7.24132L70.4704 38.5304C70.2693 39.7377 70.1687 40.7438 70.1687 41.5487C70.1687 43.1584 70.7051 44.2316 71.7778 44.7681C72.9175 45.2376 75.0629 45.4724 78.2139 45.4724C78.4151 45.4724 78.5156 45.6736 78.5156 46.076C78.5156 46.4785 78.4151 46.6797 78.2139 46.6797C76.2026 46.6797 74.6271 46.6461 73.4874 46.5791L66.8501 46.4785L60.1122 46.5791C58.9725 46.6461 57.3634 46.6797 55.2851 46.6797Z" fill="white"/>
<path d="M14.415 86.8472C20.5948 82.0105 25.3731 78.0649 28.7497 75.0102C32.1263 71.9554 34.6428 69.1553 36.2993 66.6097C37.9557 64.0005 38.7839 61.3912 38.7839 58.782C38.7839 56.8092 38.2424 55.2182 37.1593 54.009C36.0763 52.7999 34.5791 52.1953 32.6678 52.1953C28.2718 52.1953 24.3856 56.0455 21.0089 63.7459C20.8815 63.8732 20.7541 63.9368 20.6267 63.9368C20.4356 63.9368 20.2444 63.8732 20.0533 63.7459C19.8622 63.6186 19.7985 63.4595 19.8622 63.2686L25.4049 49.1406C25.5323 48.9496 25.7235 48.886 25.9783 48.9496C26.2968 49.0133 26.4243 49.1724 26.3606 49.4269C26.1694 50.0633 26.0739 50.5725 26.0739 50.9543C26.0739 51.6543 26.3924 52.0044 27.0295 52.0044C27.6029 52.0044 28.5585 51.7816 29.8964 51.3361C32.3811 50.5088 34.4835 50.0952 36.2037 50.0952C38.6884 50.0952 40.6315 50.7634 42.0331 52.0998C43.4985 53.4363 44.2311 55.25 44.2311 57.541C44.2311 60.1503 43.4666 62.6322 41.9376 64.9869C40.4085 67.3416 38.1787 69.7917 35.2481 72.3373C32.3174 74.8829 27.794 78.4785 21.6779 83.1242C21.3593 83.3788 21.4231 83.5061 21.869 83.5061C28.0489 83.5061 32.4448 83.4106 35.0569 83.2197C37.669 82.9651 39.5803 82.4242 40.7908 81.5969C42.065 80.7059 43.0843 79.2104 43.8489 77.1103C43.9763 76.9193 44.1356 76.8239 44.3267 76.8239C44.5178 76.8239 44.6771 76.8875 44.8045 77.0148C44.9956 77.1421 45.0593 77.2694 44.9956 77.3966L41.9376 87.3245C41.8102 87.8972 41.5235 88.1836 41.0775 88.1836H14.8928C14.5743 88.1836 14.3513 88.0245 14.2239 87.7063C14.0964 87.3881 14.1602 87.1017 14.415 86.8472Z" fill="white"/>
<path d="M79.0602 87.5977C77.559 87.5977 76.358 87.1835 75.4573 86.3552C74.6316 85.5269 74.2188 84.3597 74.2188 82.8537C74.2188 81.423 74.6316 80.2934 75.4573 79.4651C76.358 78.6368 77.559 78.2227 79.0602 78.2227C80.5614 78.2227 81.7249 78.6368 82.5506 79.4651C83.3762 80.2934 83.7891 81.423 83.7891 82.8537C83.7891 84.3597 83.3762 85.5269 82.5506 86.3552C81.7249 87.1835 80.5614 87.5977 79.0602 87.5977Z" fill="#E36254"/>
<path d="M47.1992 103.593C47.0938 103.646 46.9883 103.593 46.8828 103.435C46.7773 103.276 46.751 103.143 46.8037 103.037L74.3328 55.4632C74.5437 55.0925 74.4646 54.9072 74.0955 54.9072C67.1341 54.9072 62.2295 55.0396 59.3817 55.3043C56.5866 55.5161 54.6616 55.9662 53.6069 56.6545C52.6049 57.3429 51.7083 58.5871 50.9173 60.3874C50.9173 60.4933 50.8118 60.5462 50.6008 60.5462C50.4426 60.5462 50.2844 60.4933 50.1262 60.3874C49.968 60.2815 49.9152 60.1756 49.968 60.0697L54.3979 48.7917C54.3979 48.6858 54.477 48.6328 54.6353 48.6328C54.7935 48.6328 54.9517 48.6858 55.1099 48.7917C55.3209 48.8976 55.4 48.977 55.3472 49.0299C55.189 49.5065 55.1099 49.8771 55.1099 50.1418C55.1099 50.5125 55.3209 50.7772 55.7428 50.9361C56.2174 51.042 57.0612 51.0949 58.2742 51.0949H77.1806C77.3916 51.0949 77.5498 51.2273 77.6553 51.492C77.7607 51.7038 77.7607 51.9156 77.6553 52.1274L53.7651 99.2252C53.2904 100.125 52.684 100.761 51.9456 101.131L47.1992 103.593Z" fill="white"/>
<path fill-rule="evenodd" clip-rule="evenodd" d="M84.375 2.92969H15.625C8.61357 2.92969 2.92969 8.61357 2.92969 15.625V84.375C2.92969 91.3864 8.61357 97.0703 15.625 97.0703H84.375C91.3864 97.0703 97.0703 91.3864 97.0703 84.375V15.625C97.0703 8.61357 91.3864 2.92969 84.375 2.92969ZM15.625 0C6.99555 0 0 6.99555 0 15.625V84.375C0 93.0044 6.99555 100 15.625 100H84.375C93.0044 100 100 93.0044 100 84.375V15.625C100 6.99555 93.0044 0 84.375 0H15.625Z" fill="#0C3A2D"/>
</g>
<defs>
<clipPath id="clip0_156_90">
<rect width="100" height="100" fill="white"/>
</clipPath>
</defs>
</svg>
